<svg width="24" height="24" viewBox="0 0 24 24" fill="none" xmlns="http://www.w3.org/2000/svg">
<path d="M17 15.9991C14.049 15.9991 11.597 15.3601 10 14.2871C10 15.0331 10 15.5251 10 15.9991C10 17.6561 13.134 18.9991 17 18.9991C20.866 18.9991 24 17.6561 24 15.9991C24 15.5251 24 15.0331 24 14.2871C22.403 15.3601 19.951 15.9991 17 15.9991Z" fill="white"/>
<path d="M17 20.9991C14.049 20.9991 11.597 20.3601 10 19.2871C10 20.0331 10 20.5251 10 20.9991C10 22.6561 13.134 23.9991 17 23.9991C20.866 23.9991 24 22.6561 24 20.9991C24 20.5251 24 20.0331 24 19.2871C22.403 20.3601 19.951 20.9991 17 20.9991Z" fill="white"/>
<path d="M17 14C20.866 14 24 12.6569 24 11C24 9.34315 20.866 8 17 8C13.134 8 10 9.34315 10 11C10 12.6569 13.134 14 17 14Z" fill="white"/>
<path d="M7 6C10.866 6 14 4.65685 14 3C14 1.34315 10.866 0 7 0C3.13401 0 0 1.34315 0 3C0 4.65685 3.13401 6 7 6Z" fill="white"/>
<path d="M8 17.9721C7.673 17.9881 7.341 17.9991 7 17.9991C4.049 17.9991 1.597 17.3601 0 16.2871C0 17.0331 0 17.5251 0 17.9991C0 19.6561 3.134 20.9991 7 20.9991C7.34 20.9991 7.673 20.9851 8 20.9651V17.9721Z" fill="white"/>
<path d="M8 12.9721C7.673 12.9881 7.341 12.9991 7 12.9991C4.049 12.9991 1.597 12.3601 0 11.2871C0 12.0331 0 12.5251 0 12.9991C0 14.6561 3.134 15.9991 7 15.9991C7.34 15.9991 7.673 15.9851 8 15.9651V12.9721Z" fill="white"/>
<path d="M9.92 7.76511C9.018 7.91511 8.042 7.99911 7 7.99911C4.049 7.99911 1.597 7.36011 0 6.28711C0 7.03311 0 7.52511 0 7.99911C0 9.65611 3.134 10.9991 7 10.9991C7.341 10.9991 7.674 10.9851 8.003 10.9651C8.015 9.70211 8.71 8.60511 9.92 7.76511Z" fill="white"/>
</svg>
