<svg width="24" height="24" viewBox="0 0 24 24" fill="none" xmlns="http://www.w3.org/2000/svg">
<path d="M12 18C10.8133 18 9.65327 17.6481 8.66658 16.9888C7.67988 16.3295 6.91085 15.3925 6.45672 14.2961C6.0026 13.1997 5.88378 11.9933 6.11529 10.8295C6.3468 9.66558 6.91824 8.59648 7.75736 7.75736C8.59647 6.91825 9.66557 6.3468 10.8295 6.11529C11.9933 5.88378 13.1997 6.0026 14.2961 6.45673C15.3925 6.91085 16.3295 7.67989 16.9888 8.66658C17.6481 9.65328 18 10.8133 18 12C17.9984 13.5908 17.3658 15.116 16.2409 16.2409C15.116 17.3658 13.5908 17.9984 12 18Z" fill="white"/>
<path d="M8.5 2.99974H5V0.499735C4.99997 0.403774 4.97233 0.309848 4.92038 0.229168C4.86842 0.148488 4.79435 0.084463 4.707 0.0447352C4.61951 0.00500963 4.52243 -0.0086662 4.42737 0.0053442C4.33231 0.0193546 4.24331 0.0604578 4.171 0.123735L0.171 3.62374C0.117463 3.67066 0.0745647 3.72848 0.0451749 3.79333C0.0157852 3.85817 0.000581741 3.92854 0.000581741 3.99974C0.000581741 4.07093 0.0157852 4.1413 0.0451749 4.20614C0.0745647 4.27099 0.117463 4.32881 0.171 4.37574L4.171 7.87574C4.26204 7.95554 4.37894 7.99959 4.5 7.99974C4.63261 7.99974 4.75979 7.94706 4.85355 7.85329C4.94732 7.75952 5 7.63234 5 7.49974V4.99974H8.5C8.63261 4.99974 8.75979 4.94706 8.85355 4.85329C8.94732 4.75952 9 4.63234 9 4.49974V3.49974C9 3.36713 8.94732 3.23995 8.85355 3.14618C8.75979 3.05241 8.63261 2.99974 8.5 2.99974Z" fill="white"/>
<path d="M23.829 19.6235L19.829 16.1235C19.7567 16.0603 19.6678 16.0193 19.5728 16.0053C19.4779 15.9914 19.3809 16.005 19.2935 16.0446C19.2061 16.0843 19.1319 16.1483 19.0799 16.2289C19.0278 16.3096 19.0001 16.4035 19 16.4995V18.9995H15.5C15.3674 18.9995 15.2402 19.0522 15.1464 19.1459C15.0527 19.2397 15 19.3669 15 19.4995V20.4995C15 20.6321 15.0527 20.7593 15.1464 20.853C15.2402 20.9468 15.3674 20.9995 15.5 20.9995H19V23.4995C19.0001 23.5955 19.0278 23.6894 19.0799 23.7701C19.1319 23.8507 19.2061 23.9147 19.2935 23.9543C19.3809 23.994 19.4779 24.0076 19.5728 23.9937C19.6678 23.9797 19.7567 23.9387 19.829 23.8755L23.829 20.3755C23.8825 20.3286 23.9254 20.2707 23.9548 20.2059C23.9842 20.1411 23.9994 20.0707 23.9994 19.9995C23.9994 19.9283 23.9842 19.8579 23.9548 19.7931C23.9254 19.7282 23.8825 19.6704 23.829 19.6235Z" fill="white"/>
</svg>
